HIERARCHY
ROOT Hips
{
	OFFSET 0.00000 0.00000 0.00000
	CHANNELS 6 Xposition Yposition Zposition Zrotation Yrotation Xrotation 
	JOINT LHipJoint
	{
		OFFSET 0 0 0
		CHANNELS 3 Zrotation Yrotation Xrotation
		JOINT LeftUpLeg
		{
			OFFSET 1.84395 -1.68683 0.74144
			CHANNELS 3 Zrotation Yrotation Xrotation
			JOINT LeftLeg
			{
				OFFSET 2.27037 -6.23779 0.00000
				CHANNELS 3 Zrotation Yrotation Xrotation
				JOINT LeftFoot
				{
					OFFSET 2.56918 -7.05877 0.00000
					CHANNELS 3 Zrotation Yrotation Xrotation
					JOINT LeftToeBase
					{
						OFFSET 0.22276 -0.61202 1.71784
						CHANNELS 3 Zrotation Yrotation Xrotation
						End Site
						{
							OFFSET 0.00000 -0.00000 0.91613
						}
					}
				}
			}
		}
	}
	JOINT RHipJoint
	{
		OFFSET 0 0 0
		CHANNELS 3 Zrotation Yrotation Xrotation
		JOINT RightUpLeg
		{
			OFFSET -1.76833 -1.68684 0.74144
			CHANNELS 3 Zrotation Yrotation Xrotation
			JOINT RightLeg
			{
				OFFSET -2.49360 -6.85110 0.00000
				CHANNELS 3 Zrotation Yrotation Xrotation
				JOINT RightFoot
				{
					OFFSET -2.55538 -7.02085 0.00000
					CHANNELS 3 Zrotation Yrotation Xrotation
					JOINT RightToeBase
					{
						OFFSET -0.21516 -0.59115 1.68050
						CHANNELS 3 Zrotation Yrotation Xrotation
						End Site
						{
							OFFSET -0.00000 -0.00000 0.89604
						}
					}
				}
			}
		}
	}
	JOINT LowerBack
	{
		OFFSET 0 0 0
		CHANNELS 3 Zrotation Yrotation Xrotation
		JOINT Spine
		{
			OFFSET 0.06382 1.72312 -0.19613
			CHANNELS 3 Zrotation Yrotation Xrotation
			JOINT Spine1
			{
				OFFSET -0.00055 1.73507 0.23859
				CHANNELS 3 Zrotation Yrotation Xrotation
				JOINT Neck
				{
					OFFSET 0 0 0
					CHANNELS 3 Zrotation Yrotation Xrotation
					JOINT Neck1
					{
						OFFSET 0.03638 1.65562 0.09633
						CHANNELS 3 Zrotation Yrotation Xrotation
						JOINT Head
						{
							OFFSET 0.06388 1.62807 -0.32386
							CHANNELS 3 Zrotation Yrotation Xrotation
							End Site
							{
								OFFSET 0.00995 1.67644 -0.12021
							}
						}
					}
				}
				JOINT LeftShoulder
				{
					OFFSET 0 0 0
					CHANNELS 3 Zrotation Yrotation Xrotation
					JOINT LeftArm
					{
						OFFSET 3.09648 1.42991 0.28122
						CHANNELS 3 Zrotation Yrotation Xrotation
						JOINT LeftForeArm
						{
							OFFSET 5.11878 -0.00000 -0.00000
							CHANNELS 3 Zrotation Yrotation Xrotation
							JOINT LeftHand
							{
								OFFSET 3.59971 -0.00000 0.00000
								CHANNELS 3 Zrotation Yrotation Xrotation
								JOINT LeftFingerBase
								{
									OFFSET 0 0 0
									CHANNELS 3 Zrotation Yrotation Xrotation
									JOINT LeftHandIndex1
									{
										OFFSET 0.62877 -0.00000 0.00000
										CHANNELS 3 Zrotation Yrotation Xrotation
										End Site
										{
											OFFSET 0.50693 -0.00000 0.00000
										}
									}
								}
								JOINT LThumb
								{
									OFFSET 0 0 0
									CHANNELS 3 Zrotation Yrotation Xrotation
									End Site
									{
										OFFSET 0.51467 -0.00000 0.51467
									}
								}
							}
						}
					}
				}
				JOINT RightShoulder
				{
					OFFSET 0 0 0
					CHANNELS 3 Zrotation Yrotation Xrotation
					JOINT RightArm
					{
						OFFSET -3.33565 1.14597 0.05047
						CHANNELS 3 Zrotation Yrotation Xrotation
						JOINT RightForeArm
						{
							OFFSET -5.49020 -0.00000 0.00000
							CHANNELS 3 Zrotation Yrotation Xrotation
							JOINT RightHand
							{
								OFFSET -3.20659 -0.00000 -0.00000
								CHANNELS 3 Zrotation Yrotation Xrotation
								JOINT RightFingerBase
								{
									OFFSET 0 0 0
									CHANNELS 3 Zrotation Yrotation Xrotation
									JOINT RightHandIndex1
									{
										OFFSET -0.69188 -0.00000 0.00000
										CHANNELS 3 Zrotation Yrotation Xrotation
										End Site
										{
											OFFSET -0.55781 -0.00000 0.00000
										}
									}
								}
								JOINT RThumb
								{
									OFFSET 0 0 0
									CHANNELS 3 Zrotation Yrotation Xrotation
									End Site
									{
										OFFSET -0.56633 -0.00000 0.56633
									}
								}
							}
						}
					}
				}
			}
		}
	}
}
MOTION
Frames: 8
Frame Time: .0083333
-0.1428 17.4199 8.6369 0 0 0 0 0 0 -21 0 0 0 0 0 0 0 0 0 0 0 0 0 0 21 0 0 0 0 0 0 0 0 0 0 0 0 0 0 0 0 0 0 0 0 0 0 -16 0 0 21 0 0 11 0 0 0 -8 0 0 0 0 0 0 0 0 0 0 0 0 0 0 0 0 0 0 0 0 8 0 0 0 0 0 0 0 0 0 0 0 0 0 0 0 0 0
-0.1428 17.4199 8.6369 -8.3315 0.8178 9.8814 0.0000 0.0000 0.0000 -21.6281 -44.8753 28.8470 0.0643 -1.6355 -4.4995 -2.5562 44.4672 -54.7799 0.9240 6.1239 17.1445 0.0000 0.0000 0.0000 25.5129 24.6102 6.2591 -0.0099 -0.6409 1.7612 0.6958 -20.1062 -22.2537 -0.0021 0.2954 -0.8116 5.4388 2.0940 -3.2372 0.6289 2.9320 -8.9691 -2.4606 1.1124 -7.3624 -10.6720 -14.6102 -0.7785 11.5904 -22.2558 21.5270 3.3613 -10.5602 9.4386 -0.0000 0.0000 0.0000 -90.4109 12.0425 12.7371 10.8588 -18.0716 -1.7319 -0.0000 -0.0000 22.0164 15.0109 -16.3450 -4.3156 -7.1250 0.0000 -0.0000 -8.5080 13.2252 6.4085 -0.0000 0.0000 0.0000 96.7920 -12.4595 -1.5446 -15.0537 24.2208 -3.2479 0.0000 0.0000 36.0369 8.5314 -34.6371 -4.8734 7.1250 -0.0000 -0.0000 46.0835 -58.3771 -17.4140
-0.1394 17.4205 8.6231 -8.5327 0.8787 9.8886 0.0000 0.0000 0.0000 -21.0740 -44.7191 28.4414 0.0643 -1.6355 -4.4994 -2.4630 44.1778 -54.5517 0.9707 6.2724 17.5768 0.0000 0.0000 0.0000 25.7076 24.6020 6.1380 -0.0108 -0.6716 1.8456 0.6820 -20.0574 -22.3099 -0.0001 -0.0695 0.1909 5.6574 1.9395 -3.0660 0.8943 2.7549 -8.9513 -2.3051 1.0168 -7.4633 -10.7745 -14.4694 -1.3102 11.0272 -21.9407 22.0393 3.1864 -10.4229 9.6169 -0.0000 -0.0000 0.0000 -90.9097 11.9510 12.0942 10.8645 -18.0802 -1.7336 -0.0000 -0.0000 22.1384 14.9425 -16.2775 -4.2779 -7.1250 0.0000 -0.0000 -8.5526 13.3003 6.4292 -0.0000 -0.0000 0.0000 96.3421 -12.3608 -1.0065 -15.0588 24.2280 -3.2500 0.0000 0.0000 35.8907 8.5395 -34.5117 -4.8627 7.1250 -0.0000 -0.0000 45.9547 -58.2843 -17.2442
-0.1361 17.4205 8.6092 -8.7339 0.9321 9.9193 0.0000 0.0000 0.0000 -20.3746 -44.4375 27.8335 0.0638 -1.6298 -4.4836 -2.6491 44.0551 -53.8753 0.9314 6.1477 17.2135 0.0000 0.0000 0.0000 25.8933 24.6176 5.9916 -0.0119 -0.7034 1.9331 0.6782 -20.0351 -22.3094 -0.0079 -0.5729 1.5743 5.8621 1.7795 -2.8834 1.1677 2.5741 -8.9624 -2.1329 0.9193 -7.6037 -10.8468 -14.3176 -1.8643 10.4220 -21.5971 22.5803 2.9958 -10.2754 9.8006 0.0000 -0.0000 0.0000 -91.5047 11.7281 10.7339 10.7521 -17.9073 -1.6989 -0.0000 -0.0000 22.9874 14.9748 -16.3035 -4.2942 -7.1250 0.0000 -0.0000 -8.5314 13.2708 6.4182 0.0000 -0.0000 0.0000 95.8463 -12.2883 -0.4313 -15.0316 24.1901 -3.2389 0.0000 0.0000 35.8077 8.6765 -34.1707 -4.8989 7.1250 -0.0000 -0.0000 45.7116 -58.0054 -16.8059
-0.1308 17.4130 8.5806 -9.1192 1.0554 9.5932 0.0000 0.0000 0.0000 -19.3600 -43.5918 27.1586 0.0656 -1.6521 -4.5452 -3.1530 43.8918 -52.2447 0.8125 5.7519 16.0664 0.0000 0.0000 0.0000 26.4129 24.3575 6.1067 -0.0133 -0.7452 2.0478 0.6758 -19.9641 -22.2010 -0.0140 -0.7632 2.0976 6.3375 1.6106 -2.0511 1.4835 2.4404 -8.8516 -2.0850 0.8218 -7.9803 -10.5649 -14.2189 -3.0926 9.2620 -21.2183 23.5836 2.5174 -10.0920 10.1657 0.0000 -0.0000 0.0000 -92.1970 11.1159 8.6938 10.5057 -17.5267 -1.6239 -0.0000 -0.0000 24.6195 15.0856 -16.4945 -4.3764 -7.1250 0.0000 -0.0000 -8.4607 13.0661 6.4006 0.0000 -0.0000 0.0000 95.3480 -12.0082 -0.0192 -14.9825 24.1218 -3.2188 0.0000 0.0000 35.9051 8.8698 -33.9584 -4.9819 7.1250 -0.0000 -0.0000 45.6601 -57.8075 -16.5537
-0.1302 17.4130 8.5811 -9.0983 1.0348 9.5908 0.0000 0.0000 0.0000 -19.4348 -43.6180 27.2248 0.0658 -1.6552 -4.5537 -3.1132 43.8914 -52.3542 0.8182 5.7719 16.1239 0.0000 0.0000 0.0000 26.3875 24.3578 6.1346 -0.0127 -0.7274 1.9990 0.6862 -19.9967 -22.1497 -0.0133 -0.7451 2.0476 6.2477 1.4333 -1.9255 1.6906 2.2295 -8.9600 -1.8122 0.7239 -8.2014 -10.8701 -14.1287 -3.3402 8.8763 -21.0038 24.0799 2.4327 -10.0291 10.3576 0.0000 0.0000 0.0000 -92.6333 11.3961 8.0961 10.5555 -17.6038 -1.6390 -0.0000 -0.0000 24.6542 15.0705 -16.5219 -4.3789 -7.1250 0.0000 -0.0000 -8.4713 13.0397 6.4136 0.0000 0.0000 0.0000 94.8721 -12.1730 0.7153 -14.8354 23.9162 -3.1589 0.0000 0.0000 35.7731 8.5236 -33.8237 -4.7688 7.1250 -0.0000 -0.0000 45.2072 -57.7854 -16.3151
-0.1296 17.4132 8.5809 -9.0618 1.0143 9.5867 0.0000 0.0000 0.0000 -19.4729 -43.5929 27.2061 0.0653 -1.6490 -4.5366 -3.0804 43.8488 -52.3716 0.8188 5.7740 16.1300 0.0000 0.0000 0.0000 26.3778 24.4675 6.2604 -0.0114 -0.6887 1.8928 0.7046 -20.1203 -22.1849 -0.0131 -0.7398 2.0331 6.2075 1.2929 -1.6495 1.8260 2.0835 -9.1610 -1.6477 0.6454 -8.6043 -10.9621 -13.9817 -3.6184 8.5233 -20.7539 24.7278 2.3317 -9.9271 10.5881 0.0000 0.0000 0.0000 -92.7879 12.1632 9.1136 10.8392 -18.0414 -1.7258 -0.0000 -0.0000 23.2287 15.0041 -16.3287 -4.3094 -7.1250 0.0000 -0.0000 -8.5122 13.2424 6.4086 0.0000 0.0000 0.0000 94.4442 -12.4402 1.5765 -14.5987 23.5840 -3.0636 0.0000 0.0000 35.2954 7.6998 -33.6638 -4.2860 7.1250 -0.0000 -0.0000 44.2962 -57.8491 -15.9627
-0.1292 17.4129 8.5802 -9.0351 0.9802 9.5951 0.0000 0.0000 0.0000 -19.4826 -43.5702 27.1742 0.0652 -1.6480 -4.5339 -3.1078 43.8675 -52.3279 0.8108 5.7464 16.0503 0.0000 0.0000 0.0000 26.3821 24.6263 6.3658 -0.0107 -0.6667 1.8320 0.7229 -20.2530 -22.2395 -0.0118 -0.7022 1.9298 6.0898 1.1086 -1.5028 2.0492 1.8672 -9.2981 -1.3376 0.5480 -8.8696 -11.2485 -13.7861 -3.6657 8.2992 -20.4156 25.0415 2.3382 -9.8094 10.6817 0.0000 -0.0000 0.0000 -93.1797 12.6534 9.1787 10.9983 -18.2856 -1.7754 -0.0000 -0.0000 22.5760 15.1124 -16.2537 -4.3225 -7.1250 0.0000 -0.0000 -8.4387 13.3085 6.3402 0.0000 -0.0000 0.0000 93.9449 -12.6635 2.4152 -14.4612 23.3902 -3.0088 0.0000 0.0000 35.0110 7.2003 -33.5945 -3.9986 7.1250 -0.0000 -0.0000 43.7710 -57.9079 -15.7854
